<svg width="156.2" height="85.701" viewBox="0 0 156.2 85.701" xmlns="http://www.w3.org/2000/svg"><g id="svgGroup" stroke-linecap="round" fill-rule="nonzero" font-size="9pt" stroke="#0d6efd" stroke-width="0.25mm" fill="#0d6efd" style="stroke:#0d6efd;stroke-width:0.25mm;fill:#0d6efd"><path d="M 20.783 85.104 Q 16.31 84.427 12.643 82.984 A 27.608 27.608 0 0 1 8 80.65 Q 0 75.6 0 65.2 A 25.558 25.558 0 0 1 0.177 62.09 Q 0.365 60.556 0.756 59.298 A 9.872 9.872 0 0 1 1.9 56.8 Q 3.8 53.9 7.5 53.9 A 8.515 8.515 0 0 1 9.421 54.106 A 5.943 5.943 0 0 1 11.9 55.3 Q 13.6 56.7 13.6 58.9 A 22.557 22.557 0 0 1 13.543 60.555 Q 13.469 61.557 13.3 62.4 A 3.553 3.553 0 0 1 13.291 62.637 Q 13.264 63.031 13.16 63.733 A 33.354 33.354 0 0 1 13.15 63.8 A 13.805 13.805 0 0 0 13.006 65.474 A 15.712 15.712 0 0 0 13 65.9 A 6.866 6.866 0 0 0 14.017 69.64 Q 14.823 70.92 16.269 71.876 A 10.999 10.999 0 0 0 17.55 72.6 A 18.346 18.346 0 0 0 21.11 73.853 Q 24.8 74.771 29.965 74.799 A 60.304 60.304 0 0 0 30.3 74.8 A 38.555 38.555 0 0 0 35.251 74.503 Q 40.3 73.847 43.6 71.75 Q 48.4 68.7 48.4 63.2 Q 48.4 59.8 46.2 57.35 A 17.431 17.431 0 0 0 42.376 54.183 A 21.128 21.128 0 0 0 40.7 53.25 A 70.459 70.459 0 0 0 38.374 52.146 Q 35.926 51.033 32.535 49.657 A 255.857 255.857 0 0 0 31.4 49.2 A 150.11 150.11 0 0 1 26.234 47.083 Q 23.828 46.041 21.793 45.037 A 66.524 66.524 0 0 1 18.85 43.5 Q 14 40.8 10.55 36.15 A 17.225 17.225 0 0 1 7.472 28.889 A 23.7 23.7 0 0 1 7.1 24.6 A 22.888 22.888 0 0 1 8.68 16.032 A 21.583 21.583 0 0 1 10.95 11.8 A 23.195 23.195 0 0 1 17.851 5.282 A 30.319 30.319 0 0 1 22.05 3.1 Q 29.088 0.091 38.528 0.003 A 61.256 61.256 0 0 1 39.1 0 A 43.285 43.285 0 0 1 47.346 0.758 A 36.201 36.201 0 0 1 52.5 2.15 A 24.132 24.132 0 0 1 58.139 4.966 A 19.939 19.939 0 0 1 62.25 8.7 A 15.76 15.76 0 0 1 65.782 17.265 A 20.704 20.704 0 0 1 65.9 19.5 A 33.774 33.774 0 0 1 65.75 22.799 Q 65.366 26.7 64 29 Q 62.1 32.2 58.4 32.2 A 6.976 6.976 0 0 1 56.219 31.872 A 5.903 5.903 0 0 1 54.05 30.6 A 5.63 5.63 0 0 1 52.869 29.115 A 4.813 4.813 0 0 1 52.3 26.8 A 21.071 21.071 0 0 1 52.395 24.758 A 16.701 16.701 0 0 1 52.6 23.3 A 184.049 184.049 0 0 0 52.702 22.253 Q 52.893 20.229 52.9 19.551 A 4.82 4.82 0 0 0 52.9 19.5 A 6.595 6.595 0 0 0 50.423 14.179 A 9.745 9.745 0 0 0 48.8 13.1 Q 44.7 10.9 38.6 10.9 Q 33.177 10.9 29.364 12.153 A 15.127 15.127 0 0 0 25.45 14.05 A 10.437 10.437 0 0 0 22.147 17.632 Q 21.056 19.631 20.92 22.165 A 13.68 13.68 0 0 0 20.9 22.9 A 10.222 10.222 0 0 0 21.554 26.602 A 9.36 9.36 0 0 0 23.25 29.4 A 18.835 18.835 0 0 0 27.726 33.132 A 22.316 22.316 0 0 0 29.1 33.9 Q 32.262 35.526 37.708 37.724 A 226.021 226.021 0 0 0 38.9 38.2 A 191.837 191.837 0 0 1 43.771 40.261 Q 45.926 41.21 47.758 42.095 A 78.706 78.706 0 0 1 51.1 43.8 Q 55.7 46.3 58.95 50.6 A 15.881 15.881 0 0 1 61.929 57.725 A 21.435 21.435 0 0 1 62.2 61.2 Q 62.2 73 53.25 79.35 Q 45.742 84.677 33.977 85.535 A 64.304 64.304 0 0 1 29.3 85.7 A 57.055 57.055 0 0 1 20.783 85.104 Z M 150 1.9 Q 153.1 2.5 154.65 4 A 5.288 5.288 0 0 1 155.723 5.435 A 4.56 4.56 0 0 1 156.2 7.5 A 9.273 9.273 0 0 1 156.039 9.29 Q 155.841 10.297 155.398 11.066 A 4.402 4.402 0 0 1 154.35 12.3 A 4.933 4.933 0 0 1 152.784 13.133 Q 151.094 13.695 148.5 13.5 Q 141.61 12.964 137.034 12.692 A 261.493 261.493 0 0 0 134.45 12.55 Q 129.933 12.327 122.895 12.223 A 671.4 671.4 0 0 0 121.2 12.2 Q 117.5 30.6 114.4 49.2 Q 113.3 56 112.1 64.95 Q 111.027 72.956 110.594 78.202 A 122.559 122.559 0 0 0 110.5 79.4 A 6.511 6.511 0 0 1 110.023 81.497 A 5.419 5.419 0 0 1 108.1 83.85 A 8.433 8.433 0 0 1 104.395 85.289 A 11.101 11.101 0 0 1 102.8 85.4 Q 99.5 85.4 97.7 83.8 A 5.269 5.269 0 0 1 95.911 80.001 A 7.187 7.187 0 0 1 95.9 79.6 Q 95.9 77.791 96.327 74.191 A 156.38 156.38 0 0 1 96.65 71.65 Q 97.4 66.1 98.4 60 A 316.042 316.042 0 0 0 99.155 55.65 Q 99.44 53.932 99.676 52.369 A 171.143 171.143 0 0 0 100.1 49.4 Q 101.2 41.8 102.6 34.3 Q 104 26.8 105.4 20.1 Q 105.7 18.6 106.1 16.65 Q 106.5 14.7 107 12.3 A 138.602 138.602 0 0 0 101.285 12.586 Q 96.066 12.962 92.434 13.717 A 36.936 36.936 0 0 0 91.6 13.9 A 30.163 30.163 0 0 0 88.707 14.715 Q 85.792 15.707 84.135 17.106 A 7.794 7.794 0 0 0 83.65 17.55 A 7.93 7.93 0 0 0 81.352 22.532 A 10.773 10.773 0 0 0 81.3 23.6 A 11.586 11.586 0 0 0 82.831 29.321 A 14.176 14.176 0 0 0 83.3 30.1 Q 83.7 30.8 83.7 31.6 A 3.407 3.407 0 0 1 83.104 33.49 Q 82.757 34.02 82.209 34.529 A 8.6 8.6 0 0 1 81.45 35.15 A 9.129 9.129 0 0 1 79.453 36.278 A 7.073 7.073 0 0 1 76.8 36.8 A 4.734 4.734 0 0 1 75.484 36.626 A 3.7 3.7 0 0 1 74 35.8 Q 72.188 34.26 70.95 31.528 A 18.514 18.514 0 0 1 70.7 30.95 A 16.991 16.991 0 0 1 69.583 26.681 A 21.937 21.937 0 0 1 69.4 23.8 A 21.081 21.081 0 0 1 70.281 17.559 A 16.64 16.64 0 0 1 74.95 10.15 Q 80.5 5 91.85 2.6 Q 103.2 0.2 121 0.2 Q 130.389 0.2 136.536 0.492 A 148.328 148.328 0 0 1 138.55 0.6 A 121.637 121.637 0 0 1 143.966 1.046 Q 146.424 1.307 148.589 1.657 A 67.021 67.021 0 0 1 150 1.9 Z" vector-effect="non-scaling-stroke"/></g></svg>