<svg width="507.801" height="139.502" viewBox="0 0 507.801 139.502" xmlns="http://www.w3.org/2000/svg"><g id="svgGroup" stroke-linecap="round" fill-rule="evenodd" font-size="9pt" stroke="#0d6efd" stroke-width="0.25mm" fill="#0d6efd" style="stroke:#0d6efd;stroke-width:0.25mm;fill:#0d6efd"><path d="M 74 56.902 L 70.1 56.902 Q 67.1 56.902 66.05 55.802 Q 65.287 55.002 65.078 53.514 A 8.767 8.767 0 0 1 65 52.302 A 10.231 10.231 0 0 1 65.186 50.258 Q 65.828 47.124 68.688 46.752 A 6.292 6.292 0 0 1 69.5 46.702 L 75.2 46.702 Q 76.9 35.702 80.4 26.602 A 59.1 59.1 0 0 1 83.451 19.878 Q 85.892 15.329 88.85 12.102 A 20.38 20.38 0 0 1 92.179 9.139 Q 94.62 7.435 97.227 6.922 A 11.751 11.751 0 0 1 99.5 6.702 Q 103.364 6.702 105.705 9.834 A 10.433 10.433 0 0 1 106.1 10.402 A 14.264 14.264 0 0 1 108.007 15.017 Q 108.439 16.896 108.493 19.073 A 25.393 25.393 0 0 1 108.5 19.702 A 33.828 33.828 0 0 1 99.073 43.199 A 47.53 47.53 0 0 1 95.5 46.702 L 106.7 46.702 A 5.768 5.768 0 0 1 107.519 46.755 Q 108.494 46.896 109 47.402 A 1.879 1.879 0 0 1 109.395 48.016 Q 109.7 48.747 109.7 50.002 Q 109.7 56.902 98.4 56.902 L 86.2 56.902 Q 86.047 60.73 86.011 63.268 A 101.939 101.939 0 0 0 86 64.702 Q 86 75.102 88.45 79.302 A 7.985 7.985 0 0 0 94.165 83.328 A 11.441 11.441 0 0 0 96.2 83.502 Q 100.5 83.502 103.8 80.902 A 35.701 35.701 0 0 0 105.98 79.023 Q 107.164 77.923 108.473 76.553 A 92.09 92.09 0 0 0 109.078 75.912 A 98.01 98.01 0 0 1 109.299 72.172 A 75.931 75.931 0 0 1 110 66.252 A 78.663 78.663 0 0 1 111.646 58.565 A 98.87 98.87 0 0 1 113.3 53.002 Q 114.006 50.883 115.111 49.613 A 5.856 5.856 0 0 1 116.1 48.702 A 5.57 5.57 0 0 1 117.586 47.961 Q 119.241 47.402 121.8 47.402 Q 123.543 47.402 124.439 47.841 A 2.096 2.096 0 0 1 124.85 48.102 Q 125.677 48.782 125.7 50.125 A 4.518 4.518 0 0 1 125.7 50.202 A 3.471 3.471 0 0 1 125.662 50.635 Q 125.524 51.644 124.898 54.341 A 198.933 198.933 0 0 1 124.6 55.602 A 124.01 124.01 0 0 0 123.725 59.022 Q 123.336 60.646 123.039 62.107 A 74.279 74.279 0 0 0 123 62.302 Q 121 72.802 121 76.302 Q 121 77.933 121.302 78.81 A 2.43 2.43 0 0 0 121.5 79.252 A 1.635 1.635 0 0 0 122.678 80.066 A 2.428 2.428 0 0 0 123.1 80.102 Q 124.552 80.102 126.706 77.291 A 22.589 22.589 0 0 0 126.85 77.102 A 23.883 23.883 0 0 0 128.286 74.924 Q 129.671 72.579 131.16 69.152 A 89.066 89.066 0 0 0 131.65 68.002 Q 133.603 63.331 135.467 57.02 A 175.362 175.362 0 0 0 136.6 53.002 A 12.336 12.336 0 0 1 137.183 51.293 Q 137.561 50.417 138.046 49.756 A 5.37 5.37 0 0 1 139.05 48.702 A 5.254 5.254 0 0 1 140.645 47.866 Q 142.028 47.402 144 47.402 Q 145.768 47.402 146.709 47.726 A 2.52 2.52 0 0 1 147.2 47.952 A 1.727 1.727 0 0 1 147.928 48.871 Q 148.041 49.182 148.08 49.572 A 4.334 4.334 0 0 1 148.1 50.002 Q 148.1 52.341 145.911 62.298 A 447.762 447.762 0 0 1 145.6 63.702 A 426.31 426.31 0 0 0 144.649 68.157 Q 142.8 77.064 142.8 79.502 Q 142.8 80.789 143.168 81.687 A 3.349 3.349 0 0 0 143.6 82.452 Q 144.386 83.483 145.655 83.501 A 3.186 3.186 0 0 0 145.7 83.502 A 4.196 4.196 0 0 0 147.164 83.212 Q 148.41 82.747 149.885 81.535 A 18.563 18.563 0 0 0 150.45 81.052 A 37.373 37.373 0 0 0 152.143 79.432 A 69.506 69.506 0 0 0 153.9 77.582 A 32.938 32.938 0 0 1 157.3 63.252 Q 160.7 56.402 166.65 52.052 Q 172.6 47.702 180 46.902 A 160.294 160.294 0 0 1 182.217 31.538 Q 183.672 24.16 185.776 17.844 A 87.772 87.772 0 0 1 187.25 13.752 A 41.239 41.239 0 0 1 189.751 8.394 Q 193.272 2.176 197.915 0.565 A 10.253 10.253 0 0 1 201.3 0.002 A 8.247 8.247 0 0 1 207.608 2.869 A 12.179 12.179 0 0 1 208.45 3.902 A 12.507 12.507 0 0 1 210.187 7.389 Q 211.3 10.764 211.3 15.702 A 56.471 56.471 0 0 1 210.393 25.429 Q 209.563 30.158 207.977 35.41 A 117.974 117.974 0 0 1 205.8 41.902 A 180.382 180.382 0 0 1 197.48 60.964 A 221.206 221.206 0 0 1 191.1 72.702 Q 191.419 77.326 192.342 79.852 A 8.713 8.713 0 0 0 192.85 81.002 Q 194.2 83.502 196.3 83.502 A 6.792 6.792 0 0 0 199.068 82.883 Q 200.422 82.283 201.8 81.102 Q 203.342 79.78 205.461 77.487 A 107.083 107.083 0 0 0 206.773 76.036 A 98.01 98.01 0 0 1 206.999 72.172 A 75.931 75.931 0 0 1 207.7 66.252 A 78.663 78.663 0 0 1 209.346 58.565 A 98.87 98.87 0 0 1 211 53.002 Q 211.706 50.883 212.811 49.613 A 5.856 5.856 0 0 1 213.8 48.702 A 5.57 5.57 0 0 1 215.286 47.961 Q 216.941 47.402 219.5 47.402 Q 221.243 47.402 222.139 47.841 A 2.096 2.096 0 0 1 222.55 48.102 Q 223.377 48.782 223.4 50.125 A 4.518 4.518 0 0 1 223.4 50.202 A 3.471 3.471 0 0 1 223.362 50.635 Q 223.224 51.644 222.598 54.341 A 198.933 198.933 0 0 1 222.3 55.602 A 124.01 124.01 0 0 0 221.425 59.022 Q 221.036 60.646 220.739 62.107 A 74.279 74.279 0 0 0 220.7 62.302 Q 219.9 66.402 219.3 70.152 A 63.407 63.407 0 0 0 218.984 72.363 Q 218.7 74.652 218.7 76.302 A 10.271 10.271 0 0 0 218.774 77.593 Q 219.094 80.102 220.8 80.102 Q 222.252 80.102 224.406 77.291 A 22.589 22.589 0 0 0 224.55 77.102 A 23.883 23.883 0 0 0 225.986 74.924 Q 227.371 72.579 228.86 69.152 A 89.066 89.066 0 0 0 229.35 68.002 Q 231.303 63.331 233.167 57.02 A 175.362 175.362 0 0 0 234.3 53.002 A 12.336 12.336 0 0 1 234.883 51.293 Q 235.261 50.417 235.746 49.756 A 5.37 5.37 0 0 1 236.75 48.702 A 5.254 5.254 0 0 1 238.345 47.866 Q 239.728 47.402 241.7 47.402 Q 243.487 47.402 244.429 47.764 A 2.402 2.402 0 0 1 244.9 48.002 A 1.919 1.919 0 0 1 245.694 49.134 Q 245.787 49.472 245.799 49.883 A 4.199 4.199 0 0 1 245.8 50.002 Q 245.8 52.502 243.2 67.202 L 240.6 83.302 Q 248.3 77.502 255.6 72.702 A 7.207 7.207 0 0 1 256.383 72.28 Q 257.213 71.902 257.9 71.902 A 2.186 2.186 0 0 1 259.636 72.711 A 3.273 3.273 0 0 1 259.95 73.152 Q 260.7 74.402 260.7 76.302 Q 260.7 77.799 260.404 78.872 A 4.943 4.943 0 0 1 260 79.902 Q 259.3 81.202 257.8 82.202 L 238.6 95.102 Q 236.117 108.63 232.629 118.379 A 75.028 75.028 0 0 1 228.65 127.652 A 32.613 32.613 0 0 1 225.256 132.974 Q 223.06 135.728 220.536 137.32 A 13.857 13.857 0 0 1 213 139.502 A 13.461 13.461 0 0 1 209.17 138.982 A 10.533 10.533 0 0 1 204.7 136.352 A 10.575 10.575 0 0 1 201.613 129.945 A 14.662 14.662 0 0 1 201.5 128.102 Q 201.5 123.402 203.65 118.502 A 26.719 26.719 0 0 1 205.566 114.961 Q 207.811 111.419 211.65 107.252 A 84.129 84.129 0 0 1 216.245 102.667 Q 221.178 98.083 228.2 92.702 L 228.5 90.402 Q 229.036 87.569 229.689 82.86 A 380.176 380.176 0 0 0 230.1 79.802 Q 228.654 85.008 226.371 88.411 A 17.233 17.233 0 0 1 224.5 90.752 Q 221.694 93.675 218.644 94.319 A 8.413 8.413 0 0 1 216.9 94.502 A 8.258 8.258 0 0 1 210.487 91.554 A 12.208 12.208 0 0 1 209.55 90.352 A 15.755 15.755 0 0 1 208.045 87.555 A 48.936 48.936 0 0 1 205.263 89.924 A 44.897 44.897 0 0 1 203.9 90.952 Q 199 94.502 194.2 94.502 A 11.054 11.054 0 0 1 185.174 89.954 Q 183.741 88.139 182.6 85.602 Q 178.4 90.902 175.25 92.702 A 13.563 13.563 0 0 1 170.423 94.326 A 17.536 17.536 0 0 1 167.9 94.502 Q 161.8 94.502 157.85 89.952 A 15.744 15.744 0 0 1 156.305 87.809 A 47.961 47.961 0 0 1 156.065 88.025 A 39.649 39.649 0 0 1 152.15 91.102 Q 147.2 94.502 140.9 94.502 A 9.788 9.788 0 0 1 138.025 94.103 A 7.25 7.25 0 0 1 133.85 90.802 A 13.395 13.395 0 0 1 132.438 87.463 Q 131.98 85.837 131.772 83.878 A 33.051 33.051 0 0 1 131.6 80.402 A 33.504 33.504 0 0 1 130.231 84.704 Q 129.341 86.932 128.192 88.681 A 16.276 16.276 0 0 1 126.5 90.852 A 13.966 13.966 0 0 1 124.215 92.854 Q 122.513 94.025 120.696 94.364 A 8.146 8.146 0 0 1 119.2 94.502 A 8.258 8.258 0 0 1 112.787 91.554 A 12.208 12.208 0 0 1 111.85 90.352 A 15.755 15.755 0 0 1 110.343 87.549 A 45.062 45.062 0 0 1 109.25 88.508 A 38.566 38.566 0 0 1 105.8 91.102 A 20.322 20.322 0 0 1 95.325 94.472 A 24.839 24.839 0 0 1 94.1 94.502 A 20.157 20.157 0 0 1 84.239 92.231 Q 75.993 87.692 74.199 74.074 A 63.566 63.566 0 0 1 73.7 65.802 Q 73.7 61.402 74 56.902 Z M 322.394 93.73 A 13.778 13.778 0 0 0 327.1 94.502 Q 335 94.502 340.2 86.102 A 16.672 16.672 0 0 0 341.221 88.404 A 12.716 12.716 0 0 0 344.35 92.252 A 11.7 11.7 0 0 0 344.783 92.589 A 9.221 9.221 0 0 0 350.4 94.502 A 10.999 10.999 0 0 0 352.445 94.307 Q 354.283 93.96 356.173 92.994 A 20.867 20.867 0 0 0 359.3 91.002 A 44.987 44.987 0 0 0 362.68 88.152 A 54.085 54.085 0 0 0 368 82.402 A 6.749 6.749 0 0 0 368.822 81.206 A 73.247 73.247 0 0 0 369.95 79.802 A 44.956 44.956 0 0 0 371.084 78.285 Q 373.575 74.807 376.1 70.002 Q 376.844 70.852 377.644 71.857 A 73.558 73.558 0 0 1 379.1 73.752 Q 380.7 75.902 381.75 78.202 Q 382.8 80.502 382.9 83.102 A 40.679 40.679 0 0 1 382.432 83.046 Q 381.59 82.943 380.25 82.752 Q 378.5 82.502 377.2 82.502 Q 373.5 82.502 371.6 84.402 A 7.796 7.796 0 0 0 371.541 84.461 A 6.138 6.138 0 0 0 369.7 88.902 A 6.34 6.34 0 0 0 370.885 92.581 A 9.419 9.419 0 0 0 372.45 94.302 Q 375.2 96.702 380.4 96.702 Q 385.9 96.702 389.9 93.302 A 39.966 39.966 0 0 0 391.642 93.212 Q 394.198 93.024 396.412 92.51 A 21.732 21.732 0 0 0 401.15 90.852 A 19.456 19.456 0 0 0 404.382 88.799 A 31.342 31.342 0 0 0 406 87.447 A 25.73 25.73 0 0 0 406.214 88.504 Q 406.466 89.614 406.801 90.511 A 9.036 9.036 0 0 0 407.65 92.252 A 4.641 4.641 0 0 0 410.384 94.271 A 6.719 6.719 0 0 0 412.2 94.502 A 10.201 10.201 0 0 0 413.187 94.456 Q 415.542 94.227 416.75 92.852 A 5.867 5.867 0 0 0 417.401 91.928 Q 418.454 90.117 419.3 86.502 Q 420.9 80.002 423.7 73.852 A 64.197 64.197 0 0 1 424.497 72.166 Q 425.705 69.705 426.993 67.645 A 34.851 34.851 0 0 1 429.75 63.802 A 22.063 22.063 0 0 1 430.514 62.931 Q 432.176 61.137 433.689 60.405 A 4.611 4.611 0 0 1 435.7 59.902 A 2.26 2.26 0 0 1 436.862 60.206 A 2.621 2.621 0 0 1 437.55 60.802 Q 438.3 61.702 438.3 63.502 A 9.733 9.733 0 0 1 438.286 64.027 A 7.535 7.535 0 0 1 436.4 68.752 Q 435.079 70.246 432.549 71.621 A 30.346 30.346 0 0 1 430.1 72.802 A 8.804 8.804 0 0 0 428.73 73.524 Q 427.38 74.405 426.723 75.667 A 5.837 5.837 0 0 0 426.1 78.402 A 20.458 20.458 0 0 0 426.252 80.931 A 14.617 14.617 0 0 0 430.8 90.102 A 15.715 15.715 0 0 0 437.847 93.883 A 21.957 21.957 0 0 0 443.2 94.502 A 22.436 22.436 0 0 0 445.409 94.395 A 17.597 17.597 0 0 0 454.1 91.202 A 35.517 35.517 0 0 0 454.747 90.727 Q 459.017 87.515 463.2 82.402 A 6.749 6.749 0 0 0 464.022 81.206 A 73.247 73.247 0 0 0 465.15 79.802 A 44.956 44.956 0 0 0 466.284 78.285 Q 468.775 74.807 471.3 70.002 Q 472.044 70.852 472.844 71.857 A 73.558 73.558 0 0 1 474.3 73.752 Q 475.9 75.902 476.95 78.202 Q 478 80.502 478.1 83.102 A 40.679 40.679 0 0 1 477.632 83.046 Q 476.79 82.943 475.45 82.752 Q 473.7 82.502 472.4 82.502 Q 468.7 82.502 466.8 84.402 A 7.796 7.796 0 0 0 466.741 84.461 A 6.138 6.138 0 0 0 464.9 88.902 A 6.34 6.34 0 0 0 466.085 92.581 A 9.419 9.419 0 0 0 467.65 94.302 Q 470.4 96.702 475.6 96.702 Q 481.1 96.702 485.1 93.302 A 39.966 39.966 0 0 0 486.842 93.212 Q 489.398 93.024 491.612 92.51 A 21.732 21.732 0 0 0 496.35 90.852 A 19.456 19.456 0 0 0 499.582 88.799 Q 501.175 87.571 502.819 85.891 A 48.689 48.689 0 0 0 505.9 82.402 A 7.94 7.94 0 0 0 505.973 82.308 Q 507.8 79.928 507.8 76.202 Q 507.8 74.971 507.543 74.05 A 4.376 4.376 0 0 0 507.05 72.902 A 3.165 3.165 0 0 0 506.75 72.494 A 2.225 2.225 0 0 0 505 71.702 A 3.137 3.137 0 0 0 503.14 72.319 A 4.764 4.764 0 0 0 502.3 73.102 A 73.384 73.384 0 0 1 500.223 75.574 Q 496.791 79.473 493.859 81.518 A 14.721 14.721 0 0 1 490.8 83.202 A 50.435 50.435 0 0 0 490.883 82.402 Q 491 81.167 491 80.402 Q 491 76.902 489.35 73.952 Q 488.267 72.016 486.517 69.541 A 96.454 96.454 0 0 0 484.5 66.802 A 73.042 73.042 0 0 1 484.302 66.557 Q 482.923 64.85 482.019 63.514 A 21.516 21.516 0 0 1 481.25 62.302 Q 480.676 61.317 480.416 60.423 A 5.085 5.085 0 0 1 480.2 59.002 Q 480.2 57.283 481.051 55.044 A 23.412 23.412 0 0 1 482 52.902 A 16.071 16.071 0 0 0 482.252 52.414 A 14.116 14.116 0 0 0 483.1 50.302 A 16.869 16.869 0 0 0 483.27 49.716 Q 483.5 48.857 483.5 48.402 A 1.583 1.583 0 0 0 482.956 47.151 A 2.248 2.248 0 0 0 482.4 46.802 A 3.822 3.822 0 0 0 481.719 46.577 Q 480.578 46.302 478.5 46.302 A 16.214 16.214 0 0 0 478.397 46.302 Q 472.484 46.339 470.6 50.702 Q 468.4 55.902 466.1 60.752 Q 464.519 64.086 463.221 66.499 A 62.792 62.792 0 0 1 462.1 68.502 A 57.531 57.531 0 0 1 461.839 68.908 Q 459.963 71.803 456.974 75.686 A 212.651 212.651 0 0 1 454.731 78.544 A 57.203 57.203 0 0 1 453.774 79.498 A 30.868 30.868 0 0 1 452 81.102 A 11.985 11.985 0 0 1 449.98 82.469 A 8.405 8.405 0 0 1 446 83.502 Q 443.1 83.502 441.05 81.852 Q 439 80.202 438.6 77.502 A 37.83 37.83 0 0 0 441.308 75.927 Q 445.995 72.925 448.2 69.302 Q 451 64.702 451 59.202 A 15.524 15.524 0 0 0 450.958 58.052 A 11.855 11.855 0 0 0 447.95 50.802 A 9.826 9.826 0 0 0 443.641 47.963 A 11.934 11.934 0 0 0 439.9 47.402 Q 434.5 47.402 428.3 53.052 A 30.033 30.033 0 0 0 423.958 58.092 Q 422.125 60.72 420.437 64.058 A 77.171 77.171 0 0 0 417.3 71.202 A 201.525 201.525 0 0 1 417.3 71.03 A 185.598 185.598 0 0 1 417.6 60.502 A 212.556 212.556 0 0 0 425.532 51.379 Q 429.099 47.014 431.87 43.042 A 84.279 84.279 0 0 0 436.8 35.152 A 53.297 53.297 0 0 0 440.728 26.13 A 38.593 38.593 0 0 0 442.7 14.202 A 26.56 26.56 0 0 0 442.679 13.144 Q 442.59 10.888 442.11 8.954 A 14.357 14.357 0 0 0 439.85 3.952 A 11.617 11.617 0 0 0 439.014 2.919 A 8.587 8.587 0 0 0 432.4 0.002 A 12.656 12.656 0 0 0 425.04 2.38 Q 420.985 5.197 417.65 11.352 A 68.055 68.055 0 0 0 415.891 14.839 Q 413.35 20.247 411.405 26.716 A 123.711 123.711 0 0 0 408.35 39.402 Q 405.2 56.102 405.2 71.502 A 277.835 277.835 0 0 0 405.225 75.343 A 73.384 73.384 0 0 1 405.023 75.574 Q 401.591 79.473 398.659 81.518 A 14.721 14.721 0 0 1 395.6 83.202 A 50.435 50.435 0 0 0 395.683 82.402 Q 395.8 81.167 395.8 80.402 Q 395.8 76.902 394.15 73.952 Q 393.067 72.016 391.317 69.541 A 96.454 96.454 0 0 0 389.3 66.802 A 73.042 73.042 0 0 1 389.102 66.557 Q 387.723 64.85 386.819 63.514 A 21.516 21.516 0 0 1 386.05 62.302 Q 385.476 61.317 385.216 60.423 A 5.085 5.085 0 0 1 385 59.002 Q 385 57.283 385.851 55.044 A 23.412 23.412 0 0 1 386.8 52.902 A 16.071 16.071 0 0 0 387.052 52.414 A 14.116 14.116 0 0 0 387.9 50.302 A 16.869 16.869 0 0 0 388.07 49.716 Q 388.3 48.857 388.3 48.402 A 1.583 1.583 0 0 0 387.756 47.151 A 2.248 2.248 0 0 0 387.2 46.802 A 3.822 3.822 0 0 0 386.519 46.577 Q 385.378 46.302 383.3 46.302 A 16.214 16.214 0 0 0 383.197 46.302 Q 377.284 46.339 375.4 50.702 Q 373.2 55.902 370.9 60.752 Q 369.319 64.086 368.021 66.499 A 62.792 62.792 0 0 1 366.9 68.502 A 57.531 57.531 0 0 1 366.639 68.908 Q 364.763 71.803 361.774 75.686 A 212.651 212.651 0 0 1 359.06 79.132 A 73.965 73.965 0 0 1 358.769 79.432 A 39.347 39.347 0 0 1 357.1 81.052 Q 354.4 83.502 352.5 83.502 A 3.041 3.041 0 0 1 352.279 83.494 A 2.394 2.394 0 0 1 350.55 82.602 A 2.866 2.866 0 0 1 350.348 82.328 Q 350.031 81.839 349.897 81.202 A 4.872 4.872 0 0 1 349.8 80.202 A 19.067 19.067 0 0 1 349.803 79.882 Q 349.861 76.452 351.121 69.361 A 245.902 245.902 0 0 1 352.1 64.202 A 306.979 306.979 0 0 0 352.287 63.21 Q 353.6 56.167 353.6 54.202 A 4.851 4.851 0 0 0 353.598 54.06 Q 353.5 50.702 348.7 50.702 Q 346.4 50.702 344.3 51.102 A 16.337 16.337 0 0 0 344.133 50.429 Q 343.68 48.765 343.05 48.052 A 1.767 1.767 0 0 0 342.669 47.731 Q 341.836 47.202 340.1 47.202 A 21.082 21.082 0 0 0 333.899 48.126 A 24.014 24.014 0 0 0 327.05 51.552 Q 320.9 55.902 317.2 63.052 Q 313.5 70.202 313.5 78.202 A 28.402 28.402 0 0 0 313.502 78.56 Q 313.591 85.613 317.2 90.002 A 11.86 11.86 0 0 0 322.394 93.73 Z M 20.783 94.205 A 57.055 57.055 0 0 0 29.3 94.802 A 64.304 64.304 0 0 0 33.977 94.637 Q 45.742 93.778 53.25 88.452 Q 62.2 82.102 62.2 70.302 A 21.435 21.435 0 0 0 61.929 66.826 A 15.881 15.881 0 0 0 58.95 59.702 Q 55.7 55.402 51.1 52.902 A 78.706 78.706 0 0 0 47.758 51.196 Q 45.926 50.311 43.771 49.362 A 191.837 191.837 0 0 0 38.9 47.302 A 226.021 226.021 0 0 1 37.708 46.825 Q 32.262 44.628 29.1 43.002 A 22.316 22.316 0 0 1 27.726 42.233 A 18.835 18.835 0 0 1 23.25 38.502 A 9.36 9.36 0 0 1 21.554 35.703 A 10.222 10.222 0 0 1 20.9 32.002 A 13.68 13.68 0 0 1 20.92 31.267 Q 21.056 28.732 22.147 26.733 A 10.437 10.437 0 0 1 25.45 23.152 A 15.127 15.127 0 0 1 29.364 21.254 Q 33.177 20.002 38.6 20.002 Q 44.7 20.002 48.8 22.202 A 9.745 9.745 0 0 1 50.423 23.28 A 6.595 6.595 0 0 1 52.9 28.602 A 4.82 4.82 0 0 1 52.9 28.652 Q 52.893 29.33 52.702 31.354 A 184.049 184.049 0 0 1 52.6 32.402 A 16.701 16.701 0 0 0 52.395 33.859 A 21.071 21.071 0 0 0 52.3 35.902 A 4.813 4.813 0 0 0 52.869 38.216 A 5.63 5.63 0 0 0 54.05 39.702 A 5.903 5.903 0 0 0 56.219 40.973 A 6.976 6.976 0 0 0 58.4 41.302 Q 62.1 41.302 64 38.102 Q 65.366 35.802 65.75 31.9 A 33.774 33.774 0 0 0 65.9 28.602 A 20.704 20.704 0 0 0 65.782 26.366 A 15.76 15.76 0 0 0 62.25 17.802 A 19.939 19.939 0 0 0 58.139 14.067 A 24.132 24.132 0 0 0 52.5 11.252 A 36.201 36.201 0 0 0 47.346 9.86 A 43.285 43.285 0 0 0 39.1 9.102 A 61.256 61.256 0 0 0 38.528 9.104 Q 29.088 9.192 22.05 12.202 A 30.319 30.319 0 0 0 17.851 14.383 A 23.195 23.195 0 0 0 10.95 20.902 A 21.583 21.583 0 0 0 8.68 25.133 A 22.888 22.888 0 0 0 7.1 33.702 A 23.7 23.7 0 0 0 7.472 37.99 A 17.225 17.225 0 0 0 10.55 45.252 Q 14 49.902 18.85 52.602 A 66.524 66.524 0 0 0 21.793 54.139 Q 23.828 55.142 26.234 56.184 A 150.11 150.11 0 0 0 31.4 58.302 A 255.857 255.857 0 0 1 32.535 58.759 Q 35.926 60.134 38.374 61.247 A 70.459 70.459 0 0 1 40.7 62.352 A 21.128 21.128 0 0 1 42.376 63.285 A 17.431 17.431 0 0 1 46.2 66.452 Q 48.4 68.902 48.4 72.302 Q 48.4 77.802 43.6 80.852 Q 40.3 82.948 35.251 83.604 A 38.555 38.555 0 0 1 30.3 83.902 A 60.304 60.304 0 0 1 29.965 83.901 Q 24.8 83.872 21.11 82.954 A 18.346 18.346 0 0 1 17.55 81.702 A 10.999 10.999 0 0 1 16.269 80.977 Q 14.823 80.021 14.017 78.742 A 6.866 6.866 0 0 1 13 75.002 A 15.712 15.712 0 0 1 13.006 74.576 A 13.805 13.805 0 0 1 13.15 72.902 A 33.354 33.354 0 0 0 13.16 72.834 Q 13.264 72.132 13.291 71.738 A 3.553 3.553 0 0 0 13.3 71.502 Q 13.469 70.658 13.543 69.656 A 22.557 22.557 0 0 0 13.6 68.002 Q 13.6 65.802 11.9 64.402 A 5.943 5.943 0 0 0 9.421 63.207 A 8.515 8.515 0 0 0 7.5 63.002 Q 3.8 63.002 1.9 65.902 A 9.872 9.872 0 0 0 0.756 68.399 Q 0.365 69.657 0.177 71.191 A 25.558 25.558 0 0 0 0 74.302 Q 0 84.702 8 89.752 A 27.608 27.608 0 0 0 12.643 92.085 Q 16.31 93.528 20.783 94.205 Z M 333.9 11.002 Q 337 11.602 338.55 13.102 A 5.288 5.288 0 0 1 339.623 14.537 A 4.56 4.56 0 0 1 340.1 16.602 A 9.273 9.273 0 0 1 339.939 18.391 Q 339.741 19.398 339.298 20.167 A 4.402 4.402 0 0 1 338.25 21.402 A 4.933 4.933 0 0 1 336.684 22.234 Q 334.994 22.796 332.4 22.602 Q 325.51 22.066 320.934 21.793 A 261.493 261.493 0 0 0 318.35 21.652 Q 313.833 21.428 306.795 21.324 A 671.4 671.4 0 0 0 305.1 21.302 Q 301.4 39.702 298.3 58.302 Q 297.2 65.102 296 74.052 Q 294.927 82.058 294.494 87.303 A 122.559 122.559 0 0 0 294.4 88.502 A 6.511 6.511 0 0 1 293.923 90.598 A 5.419 5.419 0 0 1 292 92.952 A 8.433 8.433 0 0 1 288.295 94.391 A 11.101 11.101 0 0 1 286.7 94.502 Q 283.4 94.502 281.6 92.902 A 5.269 5.269 0 0 1 279.811 89.102 A 7.187 7.187 0 0 1 279.8 88.702 Q 279.8 86.892 280.227 83.292 A 156.38 156.38 0 0 1 280.55 80.752 Q 281.3 75.202 282.3 69.102 A 316.042 316.042 0 0 0 283.055 64.752 Q 283.34 63.033 283.576 61.47 A 171.143 171.143 0 0 0 284 58.502 Q 285.1 50.902 286.5 43.402 Q 287.9 35.902 289.3 29.202 Q 289.6 27.702 290 25.752 Q 290.4 23.802 290.9 21.402 A 138.602 138.602 0 0 0 285.185 21.687 Q 279.966 22.063 276.334 22.818 A 36.936 36.936 0 0 0 275.5 23.002 A 30.163 30.163 0 0 0 272.607 23.816 Q 269.692 24.808 268.035 26.207 A 7.794 7.794 0 0 0 267.55 26.652 A 7.93 7.93 0 0 0 265.252 31.633 A 10.773 10.773 0 0 0 265.2 32.702 A 11.586 11.586 0 0 0 266.731 38.422 A 14.176 14.176 0 0 0 267.2 39.202 Q 267.6 39.902 267.6 40.702 A 3.407 3.407 0 0 1 267.004 42.591 Q 266.657 43.122 266.109 43.63 A 8.6 8.6 0 0 1 265.35 44.252 A 9.129 9.129 0 0 1 263.353 45.379 A 7.073 7.073 0 0 1 260.7 45.902 A 4.734 4.734 0 0 1 259.384 45.727 A 3.7 3.7 0 0 1 257.9 44.902 Q 256.088 43.361 254.85 40.629 A 18.514 18.514 0 0 1 254.6 40.052 A 16.991 16.991 0 0 1 253.483 35.782 A 21.937 21.937 0 0 1 253.3 32.902 A 21.081 21.081 0 0 1 254.181 26.66 A 16.64 16.64 0 0 1 258.85 19.252 Q 264.4 14.102 275.75 11.702 Q 287.1 9.302 304.9 9.302 Q 314.289 9.302 320.436 9.593 A 148.328 148.328 0 0 1 322.45 9.702 A 121.637 121.637 0 0 1 327.866 10.147 Q 330.324 10.408 332.489 10.758 A 67.021 67.021 0 0 1 333.9 11.002 Z M 200.2 9.802 A 1.501 1.501 0 0 0 199.176 10.292 Q 198.119 11.304 197.062 14.405 A 41.745 41.745 0 0 0 196.4 16.552 Q 194.5 23.302 193.15 34.202 Q 191.8 45.102 191.2 57.002 A 187.855 187.855 0 0 0 196.614 44.036 Q 201.434 31.044 202.239 21.493 A 43.99 43.99 0 0 0 202.4 17.802 Q 202.4 14.002 201.75 11.902 A 8.693 8.693 0 0 0 201.498 11.188 Q 201.004 9.979 200.385 9.824 A 0.758 0.758 0 0 0 200.2 9.802 Z M 430.3 9.902 A 1.743 1.743 0 0 0 429.256 10.309 Q 427.881 11.35 426.3 15.052 A 52.485 52.485 0 0 0 424.94 18.622 Q 423.507 22.797 422.141 28.566 A 164.874 164.874 0 0 0 422.05 28.952 A 170.538 170.538 0 0 0 419.83 40.191 A 211.625 211.625 0 0 0 418.7 48.002 Q 424.9 40.702 428.95 32.102 A 50.219 50.219 0 0 0 431.418 25.877 Q 433 20.877 433 16.502 Q 433 13.539 432.4 11.862 A 5.938 5.938 0 0 0 432.3 11.602 A 4.29 4.29 0 0 0 431.919 10.868 Q 431.67 10.49 431.368 10.26 A 1.715 1.715 0 0 0 430.3 9.902 Z M 337.8 74.902 L 341.5 56.502 A 11.707 11.707 0 0 0 334.99 58.69 A 15.265 15.265 0 0 0 333.75 59.652 A 19.709 19.709 0 0 0 329.634 64.63 A 25.263 25.263 0 0 0 328.1 67.702 Q 326 72.702 326 78.302 A 12.33 12.33 0 0 0 326.099 79.919 Q 326.35 81.807 327.234 82.883 A 3.841 3.841 0 0 0 327.25 82.902 A 4.086 4.086 0 0 0 330.036 84.365 A 5.852 5.852 0 0 0 330.7 84.402 Q 332.9 84.402 334.9 81.802 Q 336.9 79.202 337.8 74.902 Z M 171.4 84.402 A 5.087 5.087 0 0 0 173.538 83.911 Q 174.239 83.589 174.94 83.056 A 9.612 9.612 0 0 0 175.2 82.852 A 12.592 12.592 0 0 0 176.344 81.775 Q 177.515 80.543 178.974 78.548 A 65.559 65.559 0 0 0 180 77.102 Q 179 71.702 179 65.002 Q 179 62.602 179.2 57.202 A 15.62 15.62 0 0 0 172.185 61.757 A 21.405 21.405 0 0 0 170.05 64.552 Q 166.4 70.202 166.4 77.102 A 15.776 15.776 0 0 0 166.591 79.675 Q 167.349 84.237 171.124 84.396 A 6.571 6.571 0 0 0 171.4 84.402 Z M 96.8 16.302 A 1.619 1.619 0 0 0 95.885 16.628 Q 94.881 17.32 93.74 19.484 A 23.496 23.496 0 0 0 93.45 20.052 Q 91.6 23.802 89.95 30.452 Q 88.3 37.102 87.2 45.202 A 36.677 36.677 0 0 0 93.166 38.705 A 31.376 31.376 0 0 0 96.05 33.752 A 37.252 37.252 0 0 0 97.848 29.151 Q 98.638 26.615 98.886 24.29 A 19.652 19.652 0 0 0 99 22.202 Q 99 17.648 97.69 16.609 A 1.392 1.392 0 0 0 96.8 16.302 Z M 219.294 124.742 A 36.133 36.133 0 0 0 219.7 124.002 Q 222.1 119.511 224.5 110.406 A 184.128 184.128 0 0 0 225.9 104.702 A 90.074 90.074 0 0 0 221.503 108.652 Q 217.122 112.873 214.75 116.552 Q 212.575 119.925 211.771 122.762 A 11.534 11.534 0 0 0 211.3 125.902 Q 211.3 127.602 211.95 128.702 Q 212.6 129.802 214.1 129.802 Q 216.435 129.802 219.294 124.742 Z" vector-effect="non-scaling-stroke"/></g></svg>